<?xml version="1.0" standalone="no"?>
<!DOCTYPE svg PUBLIC "-//W3C//DTD SVG 20010904//EN"
 "http://www.w3.org/TR/2001/REC-SVG-20010904/DTD/svg10.dtd">
<svg version="1.0" xmlns="http://www.w3.org/2000/svg"
 width="2400.000000pt" height="1440.000000pt" viewBox="0 0 2400.000000 1440.000000"
 preserveAspectRatio="xMidYMid meet">
<metadata>
Created by potrace 1.15, written by Peter Selinger 2001-2017
</metadata>
<g transform="translate(0.000000,1440.000000) scale(0.100000,-0.100000)"
fill="#000000" stroke="none">
<path d="M19461 11194 c-458 -77 -798 -421 -865 -875 -36 -239 -4 -459 91
-640 45 -87 136 -194 215 -254 148 -112 414 -212 823 -310 581 -138 744 -198
878 -324 221 -206 168 -610 -108 -818 -165 -125 -372 -176 -614 -152 -256 26
-474 133 -677 334 -185 183 -301 400 -379 710 l-32 130 -129 0 -129 0 0 -710
0 -710 120 0 120 0 108 135 c60 74 117 146 127 160 l18 25 49 -42 c114 -96
261 -176 416 -228 135 -44 262 -66 432 -72 390 -15 713 108 957 365 198 208
288 444 288 754 0 269 -78 468 -249 637 -193 191 -458 297 -1081 436 -325 72
-487 122 -600 184 -59 33 -161 135 -189 188 -51 100 -66 261 -36 378 47 179
207 343 398 405 259 85 572 26 812 -155 200 -151 336 -370 455 -732 l58 -178
98 0 c55 0 109 1 121 3 l23 4 -5 507 c-3 278 -8 579 -11 669 l-6 162 -122 0
-121 0 -99 -149 -99 -148 -83 67 c-160 128 -344 211 -543 244 -115 19 -314 19
-430 0z"/>
<path d="M2760 11138 c0 -2 -1 -61 -2 -133 l-1 -130 77 -6 c154 -13 210 -48
261 -163 28 -64 548 -1645 958 -2911 l84 -260 121 -3 c107 -2 122 -1 130 15 6
10 78 248 160 528 209 709 530 1805 555 1893 11 39 23 72 26 72 4 0 19 -42 34
-92 16 -51 133 -433 262 -848 129 -415 290 -937 358 -1160 l125 -405 116 -3
c113 -3 116 -2 126 20 6 13 55 167 109 343 55 176 167 538 249 805 83 267 243
787 357 1155 132 429 220 699 245 752 72 148 166 219 335 254 49 10 91 19 93
19 1 0 2 59 2 130 l0 130 -605 0 -606 0 3 -132 3 -133 125 -6 c140 -6 181 -19
223 -68 40 -48 50 -95 45 -212 -4 -102 -11 -128 -293 -1092 -159 -543 -292
-984 -295 -980 -4 5 -60 181 -125 393 -64 212 -218 713 -342 1114 -152 494
-223 741 -221 764 2 25 11 41 31 56 26 19 45 21 230 26 l202 5 3 133 3 132
-786 0 -785 0 0 -134 0 -134 193 -4 c246 -4 254 -7 313 -126 23 -45 56 -126
74 -180 l33 -97 -226 -765 c-124 -421 -254 -861 -289 -977 -35 -117 -66 -213
-69 -213 -3 0 -21 51 -41 113 -19 61 -74 231 -121 377 -366 1132 -537 1672
-532 1680 3 5 -2 35 -11 66 -31 107 0 124 219 124 l137 0 0 135 0 135 -635 0
c-349 0 -635 -1 -635 -2z"/>
<path d="M7982 11008 l3 -133 210 -5 c229 -5 255 -12 275 -66 15 -39 13 -2816
-2 -2848 -26 -58 -66 -67 -291 -68 -94 -1 -178 -3 -184 -5 -10 -4 -13 -40 -13
-134 l0 -129 1504 0 1504 0 6 63 c7 69 56 1185 56 1260 l0 47 -128 0 -129 0
-17 -107 c-55 -339 -160 -577 -331 -749 -94 -94 -171 -145 -287 -189 -129 -49
-186 -54 -605 -55 -444 -2 -444 -2 -463 69 -7 25 -9 262 -8 692 l3 654 165 0
c128 -1 178 -5 225 -19 169 -50 282 -171 330 -353 20 -76 45 -244 45 -310 l0
-53 130 0 130 0 0 845 0 845 -125 0 c-92 0 -127 -3 -129 -12 -2 -7 -9 -63 -15
-123 -20 -198 -65 -318 -154 -413 -61 -63 -115 -97 -198 -123 -50 -16 -92 -19
-235 -19 l-174 0 0 583 c1 320 5 602 9 627 6 29 19 53 36 68 l27 23 452 -3
451 -3 85 -31 c291 -104 448 -356 550 -886 l11 -58 126 0 126 0 -7 88 c-3 48
-17 296 -31 552 -14 256 -27 498 -31 538 l-6 72 -1449 0 -1450 0 3 -132z"/>
<path d="M11522 11008 l3 -133 240 -5 c262 -5 273 -8 297 -65 10 -24 13 -313
13 -1420 0 -1378 0 -1390 -20 -1425 -39 -66 -72 -74 -317 -78 l-218 -4 0 -129
0 -129 1520 0 1520 0 0 38 c0 20 18 334 40 697 22 363 40 664 40 668 0 4 -57
6 -127 5 l-127 -3 -33 -147 c-135 -608 -350 -890 -743 -975 -74 -16 -134 -18
-455 -18 -407 0 -433 3 -460 55 -13 25 -15 212 -15 1435 0 1261 2 1410 16
1440 8 18 23 37 32 42 9 4 130 10 267 13 l250 5 3 133 3 132 -866 0 -866 0 3
-132z"/>
<path d="M14942 11008 l3 -133 240 -5 c169 -4 247 -9 262 -18 56 -31 53 47 53
-1459 0 -1302 -1 -1390 -18 -1422 -36 -73 -47 -75 -305 -81 l-232 -5 -3 -132
-3 -133 1521 0 c836 0 1520 1 1521 3 4 14 83 1400 80 1403 -2 2 -60 4 -127 4
l-123 0 -11 -57 c-127 -637 -330 -942 -702 -1055 -69 -21 -94 -22 -478 -26
-437 -4 -467 -1 -498 45 -16 26 -17 112 -17 1423 0 767 4 1412 8 1433 14 68
28 71 312 77 l250 5 3 133 3 132 -871 0 -871 0 3 -132z"/>
<path d="M7687 6178 c-141 -343 -368 -895 -505 -1228 -137 -333 -302 -733
-366 -890 -127 -310 -185 -419 -259 -486 -71 -64 -197 -104 -330 -104 l-48 0
3 -132 3 -133 688 -3 687 -2 0 134 0 134 -152 5 c-209 6 -279 30 -352 120 -29
36 -31 44 -31 120 0 95 15 142 129 428 l74 184 669 2 668 3 142 -358 c78 -196
145 -369 148 -385 3 -15 7 -38 10 -51 5 -23 1 -25 -68 -41 -46 -11 -135 -19
-249 -23 l-178 -5 0 -133 0 -134 753 2 752 3 3 131 3 132 -128 3 c-116 4 -133
7 -184 32 -37 18 -66 41 -84 67 -16 22 -209 489 -430 1038 -221 548 -473 1173
-560 1387 -87 215 -195 482 -241 595 l-82 205 -114 3 -114 3 -257 -623z m273
-270 c29 -73 155 -393 281 -711 126 -318 229 -580 229 -583 0 -2 -256 -4 -570
-4 -313 0 -570 3 -570 7 0 7 574 1423 577 1423 1 0 25 -60 53 -132z"/>
<path d="M15405 6793 c-338 -31 -716 -214 -989 -481 -278 -271 -451 -610 -523
-1027 -24 -141 -24 -529 0 -670 66 -379 207 -680 441 -941 231 -255 550 -435
901 -504 151 -30 405 -38 535 -16 326 53 599 235 736 489 19 34 34 60 35 57 0
-3 35 -133 77 -290 l77 -285 123 -3 122 -3 0 691 c0 765 -1 748 62 774 43 19
105 24 261 25 l128 1 -3 128 -3 127 -785 0 -785 0 -3 -127 -3 -128 163 0 c191
0 318 -13 352 -35 45 -30 49 -57 43 -312 -4 -215 -7 -246 -29 -323 -102 -350
-372 -530 -792 -530 -169 0 -281 25 -414 91 -86 43 -119 66 -187 133 -217 212
-330 517 -366 984 -15 196 -6 670 15 832 51 379 163 643 350 823 170 164 379
247 624 247 242 0 437 -63 620 -202 118 -88 300 -437 426 -813 26 -77 50 -146
54 -153 9 -17 234 -21 240 -4 3 10 -72 1272 -84 1390 l-6 63 -116 -3 -117 -3
-87 -160 c-48 -88 -88 -164 -90 -169 -3 -5 -43 20 -91 57 -159 121 -297 190
-462 232 -146 37 -308 51 -450 38z"/>
<path d="M19405 6794 c-376 -36 -723 -198 -995 -464 -112 -109 -158 -165 -235
-281 -153 -231 -250 -493 -290 -785 -22 -157 -22 -431 -1 -587 109 -781 626
-1376 1329 -1529 139 -30 483 -33 622 -5 696 141 1216 672 1360 1391 49 245
56 507 19 751 -59 394 -226 739 -486 1007 -244 251 -602 434 -958 488 -80 12
-299 20 -365 14z m333 -290 c205 -42 389 -158 510 -321 192 -261 275 -590 289
-1143 14 -590 -72 -987 -280 -1288 -174 -252 -483 -388 -803 -353 -223 24
-397 110 -557 276 -99 102 -163 212 -218 372 -144 427 -157 1234 -27 1712 109
404 364 670 713 744 94 21 277 21 373 1z"/>
<path d="M3050 6596 l0 -134 243 -4 c259 -4 285 -8 306 -55 8 -17 11 -423 11
-1439 0 -1575 5 -1463 -68 -1483 -20 -6 -138 -11 -264 -11 l-228 0 0 -135 0
-135 895 0 895 0 0 134 0 135 -269 3 c-255 3 -271 4 -298 24 -55 41 -54 21
-53 731 0 362 0 662 0 666 0 11 270 7 350 -5 185 -28 319 -154 373 -353 21
-77 47 -245 47 -307 l0 -48 135 0 135 0 0 820 0 820 -134 0 -133 0 -7 -90 c-8
-112 -46 -264 -82 -330 -57 -104 -133 -169 -250 -211 -52 -19 -81 -22 -247
-23 l-187 -1 0 618 c0 377 4 626 10 637 5 10 24 23 41 29 41 14 654 15 787 1
177 -19 329 -69 417 -136 111 -84 226 -355 305 -713 17 -80 33 -148 36 -153 3
-4 59 -8 125 -8 l119 0 -1 93 c0 50 -10 340 -22 642 l-22 550 -1482 3 -1483 2
0 -134z"/>
<path d="M10044 6717 c-2 -7 -3 -67 -2 -133 l3 -119 235 -5 c142 -4 245 -10
261 -17 15 -6 36 -24 48 -39 l21 -27 0 -1418 0 -1417 -29 -30 c-39 -38 -64
-42 -324 -42 l-218 0 3 -132 3 -133 868 -3 867 -2 0 134 0 135 -242 3 c-268 3
-300 10 -315 66 -5 15 -8 324 -8 687 l0 660 200 -1 c171 -1 212 -4 280 -23
214 -57 352 -176 406 -350 24 -78 48 -222 84 -501 53 -413 96 -546 216 -674
104 -112 239 -166 414 -166 176 0 291 45 400 154 81 81 137 179 180 316 25 82
65 310 65 378 l0 33 -127 -3 -128 -3 -7 -95 c-14 -185 -58 -317 -119 -361 -38
-26 -63 -24 -102 11 -69 60 -113 172 -197 507 -28 111 -64 244 -81 295 -116
353 -303 516 -639 554 -33 4 -62 10 -65 14 -2 4 37 10 88 13 358 24 624 133
802 329 73 81 119 160 158 273 29 85 31 98 31 240 1 169 -13 239 -70 364 -118
257 -385 441 -734 505 -170 32 -321 36 -1268 36 -776 0 -954 -2 -958 -13z
m1806 -268 c243 -17 355 -57 442 -158 83 -97 123 -210 137 -387 21 -270 -41
-474 -178 -582 -161 -128 -399 -176 -826 -170 l-210 3 0 606 c0 655 -1 644 54
669 58 27 335 37 581 19z"/>
</g>
</svg>
